<?xml version="1.0" encoding="utf-8"?>
<!-- Generator: Adobe Illustrator 22.1.0, SVG Export Plug-In . SVG Version: 6.00 Build 0)  -->
<svg version="1.1" id="Layer_1" xmlns="http://www.w3.org/2000/svg" xmlns:xlink="http://www.w3.org/1999/xlink" x="0px" y="0px"
	 viewBox="0 0 16 16" style="enable-background:new 0 0 16 16;" xml:space="preserve">
<path d="M14,2.8c-0.7-0.7-1.7-1.1-2.7-1.1S9.4,2.1,8.7,2.8L8,3.5L7.3,2.8C6.6,2.1,5.6,1.7,4.6,1.7c-1,0-1.9,0.4-2.7,1.1
	C0.5,4.3,0.5,6.7,2,8.2l6,6l6-6C15.5,6.7,15.5,4.3,14,2.8z M13.4,7.5L8,12.9L2.6,7.5C2.1,7,1.8,6.3,1.8,5.5c0-0.8,0.3-1.5,0.8-2
	c0.5-0.5,1.2-0.8,2-0.8c0.8,0,1.5,0.3,2,0.8l0.7,0.7L8,4.9l0.7-0.7l0.7-0.7c0.5-0.5,1.2-0.8,2-0.8s1.5,0.3,2,0.8
	c0.5,0.5,0.8,1.2,0.8,2C14.2,6.3,13.9,7,13.4,7.5z"/>
</svg>
