<svg xmlns="http://www.w3.org/2000/svg" xmlns:xlink="http://www.w3.org/1999/xlink" width="98" height="30" viewBox="0 0 98 30" fill="#b3b3b3">
<g transform="translate(-1172 -291)">
<path d="M1172 304v-13h13v13z"/>
<path d="M1172 321v-13h13v13z"/>
<path d="M1189 304v-13h13v13z"/>
<path d="M1189 321v-13h13v13z"/>
<path d="M1206 304v-13h13v13z"/>
<path d="M1206 321v-13h13v13z"/>
<path d="M1223 304v-13h13v13z"/>
<path d="M1223 321v-13h13v13z"/>
<path d="M1240 304v-13h13v13z"/>
<path d="M1240 321v-13h13v13z"/>
<path d="M1257 304v-13h13v13z"/>
<path d="M1257 321v-13h13v13z"/>
</g>
</svg>