<?xml version="1.0" encoding="utf-8"?>
<!-- Generator: Adobe Illustrator 22.1.0, SVG Export Plug-In . SVG Version: 6.00 Build 0)  -->
<svg version="1.1" id="Layer_1" xmlns="http://www.w3.org/2000/svg" xmlns:xlink="http://www.w3.org/1999/xlink" x="0px" y="0px"
	 viewBox="0 0 841.9 595.3" style="enable-background:new 0 0 841.9 595.3;" xml:space="preserve">
<style type="text/css">
	.st0{fill:#C9474D;}
	.st1{fill:#222124;}
</style>
<g>
	<path class="st0" d="M599.9,287.8v35.6h-8.5v-17.8c0-2.8-1-5.3-3-7.3c-2-2-4.4-3-7.3-3c-1.4,0-2.7,0.3-3.9,0.8
		c-1.3,0.5-2.4,1.3-3.3,2.2c-2,2-3,4.4-3,7.3c0,2.8,1,5.2,3,7.2c0.9,1,2.1,1.7,3.3,2.2c1.3,0.5,2.6,0.7,3.9,0.7
		c1.4,0,2.7-0.2,3.8-0.7l3.1,7.6c-2.2,1.1-4.7,1.6-7.6,1.6c-2.6,0-5-0.5-7.2-1.5c-2.2-1-4.1-2.3-5.7-4c-1.6-1.7-2.9-3.7-3.8-6
		c-0.9-2.3-1.4-4.7-1.4-7.3c0-2.6,0.5-5.1,1.4-7.3c0.9-2.3,2.2-4.3,3.8-6c1.6-1.7,3.5-3,5.7-4c2.2-1,4.6-1.5,7.2-1.5
		c2.3,0,4.4,0.4,6.2,1.1c1.8,0.7,3.4,1.6,4.8,2.7v-2.8H599.9z"/>
	<path class="st1" d="M449.2,287.9l-12,35.6h-9l-7.5-22.9l-7.5,22.9h-9l-12-35.6h9l7.5,23l7.5-23h9l7.5,23l7.5-23H449.2z"/>
	<path class="st1" d="M472.1,286.9c2.6,0,5.1,0.5,7.3,1.5c2.3,1,4.3,2.3,6,4c1.7,1.7,3,3.7,4,6c1,2.3,1.5,4.7,1.5,7.3
		c0,2.6-0.5,5-1.5,7.3c-1,2.3-2.3,4.3-4,6c-1.7,1.7-3.7,3-6,4c-2.3,1-4.7,1.5-7.3,1.5c-2.6,0-5.1-0.5-7.3-1.5c-2.3-1-4.3-2.3-6-4
		c-1.7-1.7-3-3.7-4-6c-1-2.3-1.5-4.7-1.5-7.3c0-2.6,0.5-5.1,1.5-7.3c1-2.3,2.3-4.3,4-6c1.7-1.7,3.7-3,6-4
		C467.1,287.4,469.5,286.9,472.1,286.9z M472.1,295.4c-2.8,0-5.3,1-7.3,3c-2,2-3,4.4-3,7.3c0,2.8,1,5.2,3,7.2c0.9,1,2.1,1.7,3.3,2.2
		c1.3,0.5,2.6,0.7,3.9,0.7c1.4,0,2.7-0.2,3.9-0.7c1.2-0.5,2.3-1.2,3.3-2.2c2-2,3-4.4,3-7.2c0-2.8-1-5.3-3-7.3
		C477.3,296.4,474.9,295.4,472.1,295.4z"/>
	<path class="st1" d="M499.5,310.9v-8.5h27.7v8.5H499.5z"/>
	<path class="st1" d="M386.8,314.9h-5.7c-0.9,0-1.6-0.3-2.2-0.9c-0.6-0.6-0.9-1.4-0.9-2.3v-11h7.1l-2.1-8.5h-5v-13.6l-8.5,2.1v11.5
		h-3.3v8.6h3.3v11c0,1.6,0.3,3.1,0.9,4.6c0.6,1.4,1.4,2.7,2.5,3.7c1,1.1,2.3,1.9,3.7,2.5c1.4,0.6,2.9,0.9,4.6,0.9h7.8L386.8,314.9z"
		/>
	<path class="st1" d="M555.2,314.9h-5.7c-0.9,0-1.6-0.3-2.2-0.9c-0.6-0.6-0.9-1.4-0.9-2.3v-11h7.1l-2.1-8.5h-5v-13.6l-8.5,2.1v11.5
		h-3.3v8.6h3.3v11c0,1.6,0.3,3.1,0.9,4.6c0.6,1.4,1.4,2.7,2.5,3.7c1,1.1,2.3,1.9,3.7,2.5c1.4,0.6,2.9,0.9,4.6,0.9h7.8L555.2,314.9z"
		/>
</g>
</svg>
