<?xml version="1.0" encoding="utf-8"?>
<!-- Generator: Adobe Illustrator 22.1.0, SVG Export Plug-In . SVG Version: 6.00 Build 0)  -->
<svg version="1.1" id="Layer_1" xmlns="http://www.w3.org/2000/svg" xmlns:xlink="http://www.w3.org/1999/xlink" x="0px" y="0px"
	 viewBox="0 0 841.9 595.3" style="enable-background:new 0 0 841.9 595.3;" xml:space="preserve">
<style type="text/css">
	.st0{fill:#222124;}
	.st1{fill:#C9474D;}
</style>
<g>
	<path class="st0" d="M467.7,244.1v-11.4h-20V219h-11.4v13.7h-36.4c-14.9,0-25.7,10.8-25.7,25.7c0,12.9,8.1,22.7,20,25.1v18.2h-20
		V313h20v13.7h11.4V313H442c14.9,0,25.7-10.8,25.7-25.7c0-12.9-8.1-22.7-20-25.1v-18.2H467.7z M442,273.1c9.9,0,14.3,7.2,14.3,14.3
		c0,7.1-4.4,14.3-14.3,14.3h-36.4v-29h-5.7c-9.9,0-14.3-7.2-14.3-14.3c0-7.1,4.4-14.3,14.3-14.3h36.4v29H442z"/>
	<g>
		<path class="st0" d="M397.7,351.3l-8.2,24.4h-6.2l-5.2-15.7l-5.2,15.7h-6.1l-8.2-24.4h6.1l5.2,15.8l5.2-15.8h6.2l5.2,15.8
			l5.2-15.8H397.7z"/>
		<path class="st0" d="M413.5,350.6c1.8,0,3.5,0.3,5,1c1.6,0.7,2.9,1.6,4.1,2.8c1.2,1.2,2.1,2.5,2.8,4.1c0.7,1.6,1,3.2,1,5
			c0,1.8-0.3,3.4-1,5c-0.7,1.6-1.6,2.9-2.8,4.1c-1.2,1.2-2.5,2.1-4.1,2.8c-1.6,0.7-3.2,1-5,1c-1.8,0-3.5-0.3-5-1
			c-1.6-0.7-2.9-1.6-4.1-2.8c-1.2-1.2-2.1-2.5-2.8-4.1c-0.7-1.6-1-3.2-1-5c0-1.8,0.3-3.5,1-5c0.7-1.6,1.6-2.9,2.8-4.1
			c1.2-1.2,2.5-2.1,4.1-2.8C410,350.9,411.7,350.6,413.5,350.6z M413.5,356.4c-2,0-3.6,0.7-5,2c-1.4,1.4-2,3-2,5
			c0,1.9,0.7,3.6,2,4.9c0.6,0.7,1.4,1.2,2.3,1.5c0.9,0.3,1.8,0.5,2.7,0.5c0.9,0,1.8-0.2,2.7-0.5c0.8-0.3,1.6-0.9,2.3-1.5
			c1.4-1.4,2-3,2-4.9c0-2-0.7-3.6-2-5C417,357.1,415.3,356.4,413.5,356.4z"/>
		<path class="st0" d="M432.2,367v-5.9h19v5.9H432.2z"/>
		<path class="st1" d="M501.1,351.2v24.4h-5.9v-12.2c0-2-0.7-3.6-2-5c-1.4-1.4-3-2-5-2c-0.9,0-1.8,0.2-2.7,0.5
			c-0.9,0.4-1.6,0.9-2.3,1.5c-1.4,1.4-2,3-2,5c0,1.9,0.7,3.6,2,4.9c0.7,0.7,1.4,1.2,2.3,1.5c0.9,0.3,1.8,0.5,2.7,0.5
			c1,0,1.9-0.2,2.6-0.5l2.1,5.2c-1.5,0.7-3.2,1.1-5.2,1.1c-1.8,0-3.4-0.3-5-1s-2.8-1.6-3.9-2.8c-1.1-1.2-2-2.5-2.6-4.1
			c-0.6-1.6-0.9-3.2-0.9-5c0-1.8,0.3-3.5,0.9-5c0.6-1.6,1.5-2.9,2.6-4.1c1.1-1.2,2.4-2.1,3.9-2.8c1.5-0.7,3.2-1,5-1
			c1.6,0,3,0.2,4.2,0.7c1.2,0.5,2.3,1.1,3.3,1.9v-2H501.1z"/>
		<path class="st0" d="M355,369.8h-3.9c-0.6,0-1.1-0.2-1.5-0.6c-0.4-0.4-0.6-0.9-0.6-1.6V360h4.9l-1.5-5.9h-3.4v-9.3l-5.9,1.5v7.9
			h-2.2v5.9h2.2v7.5c0,1.1,0.2,2.1,0.6,3.1c0.4,1,1,1.8,1.7,2.6c0.7,0.7,1.6,1.3,2.5,1.7c1,0.4,2,0.6,3.1,0.6h5.4L355,369.8z"/>
		<path class="st0" d="M470.4,369.8h-3.9c-0.6,0-1.1-0.2-1.5-0.6c-0.4-0.4-0.6-0.9-0.6-1.6V360h4.9l-1.5-5.9h-3.4v-9.3l-5.9,1.5v7.9
			h-2.2v5.9h2.2v7.5c0,1.1,0.2,2.1,0.6,3.1c0.4,1,1,1.8,1.7,2.6c0.7,0.7,1.6,1.3,2.5,1.7c1,0.4,2,0.6,3.1,0.6h5.4L470.4,369.8z"/>
	</g>
</g>
</svg>
