<svg xmlns="http://www.w3.org/2000/svg" xmlns:xlink="http://www.w3.org/1999/xlink" width="798" height="800" viewBox="0 0 798 800">
    <g transform="translate(-1)" fill='#cccccc'><path id="oulva" d="M25.18 301.86C6.3 250.97-1 208.86 2.15 169.25c2.65-31.66 15.4-59.01 37.95-81.56l61.97-62C119.8 8.8 140.02 0 161.07 0c21.2 0 41.26 8.79 58.32 25.53 11.27 10.44 22.7 22.05 33.64 33.32 5.64 5.8 11.1 11.44 16.9 17.24l49.39 49.4c18.06 17.9 27.5 38.62 27.5 59.67 0 21.06-9.6 41.78-27.5 59.68-5.14 5.14-10.28 10.28-15.25 15.42-14.08 14.42-28.67 29.17-44.24 43.26 11.1 25.7 27 50.9 50.7 80.9 46.9 57.52 95.95 102.28 149.97 136.6 5.47 3.47 11.6 6.62 18.23 9.94a315.6 315.6 0 0 1 16.4 8.62l59.33-59.35c17.4-17.4 37.78-26.69 59-26.69 21.2 0 41.42 9.29 58.32 26.86l99.6 99.62c35.62 35.64 35.62 82.4.32 119.2a768.86 768.86 0 0 1-23.36 23.2c-11.43 11.1-22.37 21.55-31.98 33.15-.17.34-.5.67-.67.83-27 29.34-60.15 43.6-101.41 43.6-3.81 0-7.46-.17-11.27-.33-61.48-3.98-116.66-27.19-157.92-46.75-108.37-52.55-203.33-126.81-282.2-221.13C97.93 453.7 54.19 380.6 25.19 301.86zm38.28-13.59c27.5 74.27 69.1 143.56 130.91 217.99C269.44 596.1 359.92 666.89 463 716.78c37.94 18.07 88.49 39.3 142.84 42.77 2.82.17 5.8.33 8.62.33 29.33 0 52.03-9.61 71.08-30.17 10.94-13.1 23.04-24.7 34.64-35.97a553.98 553.98 0 0 0 22.04-22.04c20.21-21.06 20.38-42.6.5-62.5l-99.93-99.8c-6.46-6.95-16.73-14.75-29.33-14.75-10.27 0-20.71 5.14-30.32 14.76l-61.98 62c-2.82 2.81-11.43 11.27-24.69 11.27-5.3 0-10.6-1.33-16.07-4.15-.67-.33-1.16-.66-1.83-1-5.47-3.47-11.6-6.62-18.22-9.94-7.13-3.64-14.75-7.3-21.88-11.93-57.67-36.64-110.03-84.21-159.74-145.55-27.68-34.81-45.4-63.99-58.17-94.65-.16-.5-.33-.83-.5-1.33-3.3-9.94-5.46-23.04 8.3-36.8l.82-.83c15.9-14.09 30.33-28.84 45.74-44.42 5.13-5.14 10.27-10.45 15.4-15.59 10.28-10.27 15.58-20.72 15.58-31 0-10.27-5.3-20.72-15.57-31l-49.38-49.4c-5.8-5.96-11.6-11.76-17.24-17.56-11.27-11.44-21.7-22.22-32.8-32.5-9.45-9.6-19.73-14.42-29.84-14.42-10.27 0-20.88 4.81-30.49 14.1l-61.64 61.66c-15.9 15.91-24.36 34.31-26.35 56.36-2.65 33.32 3.81 69.96 20.88 115.54z"/>
    </g>
</svg>