<?xml version="1.0" encoding="utf-8"?>
<!-- Generator: Adobe Illustrator 22.1.0, SVG Export Plug-In . SVG Version: 6.00 Build 0)  -->
<svg version="1.1" id="Layer_1" xmlns="http://www.w3.org/2000/svg" xmlns:xlink="http://www.w3.org/1999/xlink" x="0px" y="0px"
	 viewBox="0 0 36 36" style="enable-background:new 0 0 36 36;" xml:space="preserve">
<path d="M32,12.2l0-1.7c0-0.6,0-1.4,0-2.1l0-0.9c0-1.4-0.7-1.7-1.3-1.7c-4.8,0-8.5-1.4-11.6-4.4c-0.7-0.6-1.7-0.6-2.3,0
	c-3.1,3-6.7,4.4-11.6,4.4C4.7,5.8,4,6.1,4,7.5l0,0.9c0,0.7,0,1.5,0,2.1l0,0.7c-0.2,8.1-0.4,19.1,13.5,23.9c0.2,0.1,0.4,0.1,0.5,0.1
	s0.4,0,0.5-0.1C32.4,30.3,32.2,20.3,32,12.2z M18.2,34.2c-0.1,0.1-0.3,0-0.4,0C4.6,29.6,4.8,19.4,5,11.2l0-0.7c0-0.6,0-1.4,0-2.1
	l0-0.9c0-0.7,0.2-0.7,0.3-0.7c5.1,0,9-1.5,12.3-4.6C17.7,2.1,17.8,2,18,2c0.2,0,0.3,0.1,0.5,0.2c3.3,3.2,7.1,4.6,12.3,4.6
	c0.1,0,0.3,0,0.3,0.7l0,0.9c0,0.7,0,1.5,0,2.1l0,1.7C31.2,20.4,31.4,29.6,18.2,34.2z M26.4,12.6l0.7,0.8l-10.6,9.3l-5.5-5.5l0.7-0.7
	l4.8,4.8L26.4,12.6z"/>
</svg>
