<svg width="162.9" height="162.3" xmlns="http://www.w3.org/2000/svg">
 <style type="text/css">.st0{fill:#222124;}
	.st1{fill:#C9474D;}</style>

 <g>
  <title>background</title>
  <rect fill="none" id="canvas_background" height="164.3" width="164.9" y="-1" x="-1"/>
 </g>
 <g>
  <title>Layer 1</title>
  <g id="svg_1">
   <path id="svg_2" d="m127.7,27.1l0,-11.4l-20,0l0,-13.7l-11.4,0l0,13.7l-36.4,0c-14.9,0 -25.7,10.8 -25.7,25.7c0,12.9 8.1,22.7 20,25.1l0,18.2l-20,0l0,11.3l20,0l0,13.7l11.4,0l0,-13.7l36.4,0c14.9,0 25.7,-10.8 25.7,-25.7c0,-12.9 -8.1,-22.7 -20,-25.1l0,-18.2l20,0l0,0.1zm-25.7,29c9.9,0 14.3,7.2 14.3,14.3c0,7.1 -4.4,14.3 -14.3,14.3l-36.4,0l0,-29l-5.7,0c-9.9,0 -14.3,-7.2 -14.3,-14.3c0,-7.1 4.4,-14.3 14.3,-14.3l36.4,0l0,29l5.7,0z" class="st0"/>
   <g id="svg_3">
    <path id="svg_4" d="m57.7,134.3l-8.2,24.4l-6.2,0l-5.2,-15.7l-5.2,15.7l-6.1,0l-8.2,-24.4l6.1,0l5.2,15.8l5.2,-15.8l6.2,0l5.2,15.8l5.2,-15.8l6,0z" class="st0"/>
    <path id="svg_5" d="m73.5,133.6c1.8,0 3.5,0.3 5,1c1.6,0.7 2.9,1.6 4.1,2.8c1.2,1.2 2.1,2.5 2.8,4.1c0.7,1.6 1,3.2 1,5c0,1.8 -0.3,3.4 -1,5c-0.7,1.6 -1.6,2.9 -2.8,4.1c-1.2,1.2 -2.5,2.1 -4.1,2.8c-1.6,0.7 -3.2,1 -5,1c-1.8,0 -3.5,-0.3 -5,-1c-1.6,-0.7 -2.9,-1.6 -4.1,-2.8c-1.2,-1.2 -2.1,-2.5 -2.8,-4.1c-0.7,-1.6 -1,-3.2 -1,-5c0,-1.8 0.3,-3.5 1,-5c0.7,-1.6 1.6,-2.9 2.8,-4.1c1.2,-1.2 2.5,-2.1 4.1,-2.8c1.5,-0.7 3.2,-1 5,-1zm0,5.8c-2,0 -3.6,0.7 -5,2c-1.4,1.4 -2,3 -2,5c0,1.9 0.7,3.6 2,4.9c0.6,0.7 1.4,1.2 2.3,1.5c0.9,0.3 1.8,0.5 2.7,0.5c0.9,0 1.8,-0.2 2.7,-0.5c0.8,-0.3 1.6,-0.9 2.3,-1.5c1.4,-1.4 2,-3 2,-4.9c0,-2 -0.7,-3.6 -2,-5c-1.5,-1.3 -3.2,-2 -5,-2z" class="st0"/>
    <path id="svg_6" d="m92.2,150l0,-5.9l19,0l0,5.9l-19,0z" class="st0"/>
    <path id="svg_7" d="m161.1,134.2l0,24.4l-5.9,0l0,-12.2c0,-2 -0.7,-3.6 -2,-5c-1.4,-1.4 -3,-2 -5,-2c-0.9,0 -1.8,0.2 -2.7,0.5c-0.9,0.4 -1.6,0.9 -2.3,1.5c-1.4,1.4 -2,3 -2,5c0,1.9 0.7,3.6 2,4.9c0.7,0.7 1.4,1.2 2.3,1.5c0.9,0.3 1.8,0.5 2.7,0.5c1,0 1.9,-0.2 2.6,-0.5l2.1,5.2c-1.5,0.7 -3.2,1.1 -5.2,1.1c-1.8,0 -3.4,-0.3 -5,-1s-2.8,-1.6 -3.9,-2.8c-1.1,-1.2 -2,-2.5 -2.6,-4.1c-0.6,-1.6 -0.9,-3.2 -0.9,-5c0,-1.8 0.3,-3.5 0.9,-5c0.6,-1.6 1.5,-2.9 2.6,-4.1c1.1,-1.2 2.4,-2.1 3.9,-2.8c1.5,-0.7 3.2,-1 5,-1c1.6,0 3,0.2 4.2,0.7c1.2,0.5 2.3,1.1 3.3,1.9l0,-2l5.9,0l0,0.3z" class="st1"/>
    <path id="svg_8" d="m15,152.8l-3.9,0c-0.6,0 -1.1,-0.2 -1.5,-0.6c-0.4,-0.4 -0.6,-0.9 -0.6,-1.6l0,-7.6l4.9,0l-1.5,-5.9l-3.4,0l0,-9.3l-5.9,1.5l0,7.9l-2.2,0l0,5.9l2.2,0l0,7.5c0,1.1 0.2,2.1 0.6,3.1c0.4,1 1,1.8 1.7,2.6c0.7,0.7 1.6,1.3 2.5,1.7c1,0.4 2,0.6 3.1,0.6l5.4,0l-1.4,-5.8z" class="st0"/>
    <path id="svg_9" d="m130.4,152.8l-3.9,0c-0.6,0 -1.1,-0.2 -1.5,-0.6c-0.4,-0.4 -0.6,-0.9 -0.6,-1.6l0,-7.6l4.9,0l-1.5,-5.9l-3.4,0l0,-9.3l-5.9,1.5l0,7.9l-2.2,0l0,5.9l2.2,0l0,7.5c0,1.1 0.2,2.1 0.6,3.1c0.4,1 1,1.8 1.7,2.6c0.7,0.7 1.6,1.3 2.5,1.7c1,0.4 2,0.6 3.1,0.6l5.4,0l-1.4,-5.8z" class="st0"/>
   </g>
  </g>
 </g>
</svg>