<?xml version="1.0" encoding="utf-8"?><svg xmlns="http://www.w3.org/2000/svg" xmlns:xlink="http://www.w3.org/1999/xlink"><symbol id="cart" viewBox="0 0 16 16" xmlns="http://www.w3.org/2000/svg"><style>.ast0{fill:#212125}</style><path class="ast0" d="M11 4.6v-1c0-1-.5-1.9-1.3-2.5C8.8.6 7.8.5 6.8.9 5.7 1.3 5 2.5 5 3.7v.9H2v8.1c0 1.4 1.2 2.6 2.6 2.6h6.8c1.4 0 2.6-1.2 2.6-2.6V4.6h-3zm-5-.9c0-.8.5-1.6 1.2-1.9.7-.2 1.4-.2 1.9.2.6.4.9 1 .9 1.7v1H6v-1zm7 9.1c0 .9-.7 1.6-1.6 1.6H4.6c-.9 0-1.6-.7-1.6-1.6V5.6h10v7.2z"/></symbol><symbol viewBox="0 0 16 16" id="favorite" xmlns="http://www.w3.org/2000/svg"><path d="M14 2.8c-.7-.7-1.7-1.1-2.7-1.1s-1.9.4-2.6 1.1l-.7.7-.7-.7c-.7-.7-1.7-1.1-2.7-1.1-1 0-1.9.4-2.7 1.1C.5 4.3.5 6.7 2 8.2l6 6 6-6c1.5-1.5 1.5-3.9 0-5.4zm-.6 4.7L8 12.9 2.6 7.5c-.5-.5-.8-1.2-.8-2s.3-1.5.8-2 1.2-.8 2-.8 1.5.3 2 .8l.7.7.7.7.7-.7.7-.7c.5-.5 1.2-.8 2-.8s1.5.3 2 .8.8 1.2.8 2-.3 1.5-.8 2z"/></symbol><symbol viewBox="0 0 264 512" id="fb" xmlns="http://www.w3.org/2000/svg"><path d="M215.8 85H264V3.6C255.7 2.5 227.1 0 193.8 0 124.3 0 76.7 42.4 76.7 120.3V192H0v91h76.7v229h94V283h73.6l11.7-91h-85.3v-62.7c0-26.3 7.3-44.3 45.1-44.3z"/></symbol><symbol viewBox="0 0 448 512" id="instagram" xmlns="http://www.w3.org/2000/svg"><path d="M224.1 141c-63.6 0-114.9 51.3-114.9 114.9s51.3 114.9 114.9 114.9S339 319.5 339 255.9 287.7 141 224.1 141zm0 189.6c-41.1 0-74.7-33.5-74.7-74.7s33.5-74.7 74.7-74.7 74.7 33.5 74.7 74.7-33.6 74.7-74.7 74.7zm146.4-194.3c0 14.9-12 26.8-26.8 26.8-14.9 0-26.8-12-26.8-26.8s12-26.8 26.8-26.8 26.8 12 26.8 26.8zm76.1 27.2c-1.7-35.9-9.9-67.7-36.2-93.9-26.2-26.2-58-34.4-93.9-36.2-37-2.1-147.9-2.1-184.9 0-35.8 1.7-67.6 9.9-93.9 36.1s-34.4 58-36.2 93.9c-2.1 37-2.1 147.9 0 184.9 1.7 35.9 9.9 67.7 36.2 93.9s58 34.4 93.9 36.2c37 2.1 147.9 2.1 184.9 0 35.9-1.7 67.7-9.9 93.9-36.2 26.2-26.2 34.4-58 36.2-93.9 2.1-37 2.1-147.8 0-184.8zM398.8 388c-7.8 19.6-22.9 34.7-42.6 42.6-29.5 11.7-99.5 9-132.1 9s-102.7 2.6-132.1-9c-19.6-7.8-34.7-22.9-42.6-42.6-11.7-29.5-9-99.5-9-132.1s-2.6-102.7 9-132.1c7.8-19.6 22.9-34.7 42.6-42.6 29.5-11.7 99.5-9 132.1-9s102.7-2.6 132.1 9c19.6 7.8 34.7 22.9 42.6 42.6 11.7 29.5 9 99.5 9 132.1s2.7 102.7-9 132.1z"/></symbol><symbol viewBox="0 0 30 30" id="layout1" xmlns="http://www.w3.org/2000/svg"><path d="M0 30V0h30v30z"/></symbol><symbol viewBox="0 0 30 30" id="layout2" xmlns="http://www.w3.org/2000/svg"><path d="M0 13V0h13v13zm17 0V0h13v13zM0 30V17h13v13zm17 0V17h13v13z"/></symbol><symbol viewBox="0 0 47 30" id="layout3" xmlns="http://www.w3.org/2000/svg"><path d="M0 13V0h13v13zm17 0V0h13v13zm17 0V0h13v13zM0 30V17h13v13zm17 0V17h13v13zm17 0V17h13v13z"/></symbol><symbol viewBox="0 0 98 30" id="layout6" xmlns="http://www.w3.org/2000/svg"><path d="M0 13V0h13v13zm0 17V17h13v13zm17-17V0h13v13zm0 17V17h13v13zm17-17V0h13v13zm0 17V17h13v13zm17-17V0h13v13zm0 17V17h13v13zm17-17V0h13v13zm0 17V17h13v13zm17-17V0h13v13zm0 17V17h13v13z"/></symbol><symbol viewBox="0 0 398 356" id="like" xmlns="http://www.w3.org/2000/svg"><path d="M395.1 118.7c0-58.8-47.7-106.4-106.4-106.4-38.4 0-71.9 20.4-90.6 50.9-18.7-30.5-52.3-50.9-90.7-50.9C48.6 12.3 1 60 1 118.7c0 32 14.2 60.6 36.5 80.1l150.8 150.8c2.6 2.6 6.1 4 9.7 4 3.6 0 7.1-1.4 9.7-4l150.8-150.8c22.4-19.4 36.6-48.1 36.6-80.1zm0 0" class="ist0"/></symbol><symbol viewBox="0 0 16 16" id="login" xmlns="http://www.w3.org/2000/svg"><path d="M9.4 7.075c1.2-.5 2-1.7 2-3.1 0-1.9-1.5-3.4-3.4-3.4s-3.4 1.6-3.4 3.5c0 1.4.8 2.5 2 3.1-2.5.9-4.3 4.1-4.3 7.9v.5h11.4v-.5c0-3.9-1.8-7.1-4.3-8zm-3.8-3c0-1.3 1.1-2.4 2.4-2.4 1.3 0 2.4 1.1 2.4 2.4 0 1.3-1.1 2.4-2.4 2.4-1.3-.1-2.4-1.1-2.4-2.4zm-2.3 10.4c.2-3.7 2.2-6.6 4.7-6.6s4.5 2.9 4.7 6.6H3.3z"/></symbol><symbol id="logo" viewBox="0 0 841.9 595.3" xmlns="http://www.w3.org/2000/svg"><style>.kst0{fill:#222124}.kst1{fill:#c9474d}</style><path class="kst0" d="M467.7 244.1v-11.4h-20V219h-11.4v13.7h-36.4c-14.9 0-25.7 10.8-25.7 25.7 0 12.9 8.1 22.7 20 25.1v18.2h-20V313h20v13.7h11.4V313H442c14.9 0 25.7-10.8 25.7-25.7 0-12.9-8.1-22.7-20-25.1V244h20zm-25.7 29c9.9 0 14.3 7.2 14.3 14.3 0 7.1-4.4 14.3-14.3 14.3h-36.4v-29h-5.7c-9.9 0-14.3-7.2-14.3-14.3 0-7.1 4.4-14.3 14.3-14.3h36.4v29h5.7zm-44.3 78.2l-8.2 24.4h-6.2l-5.2-15.7-5.2 15.7h-6.1l-8.2-24.4h6.1l5.2 15.8 5.2-15.8h6.2l5.2 15.8 5.2-15.8h6zm15.8-.7c1.8 0 3.5.3 5 1 1.6.7 2.9 1.6 4.1 2.8 1.2 1.2 2.1 2.5 2.8 4.1.7 1.6 1 3.2 1 5 0 1.8-.3 3.4-1 5s-1.6 2.9-2.8 4.1c-1.2 1.2-2.5 2.1-4.1 2.8-1.6.7-3.2 1-5 1-1.8 0-3.5-.3-5-1-1.6-.7-2.9-1.6-4.1-2.8-1.2-1.2-2.1-2.5-2.8-4.1-.7-1.6-1-3.2-1-5 0-1.8.3-3.5 1-5 .7-1.6 1.6-2.9 2.8-4.1 1.2-1.2 2.5-2.1 4.1-2.8 1.5-.7 3.2-1 5-1zm0 5.8c-2 0-3.6.7-5 2-1.4 1.4-2 3-2 5 0 1.9.7 3.6 2 4.9.6.7 1.4 1.2 2.3 1.5.9.3 1.8.5 2.7.5.9 0 1.8-.2 2.7-.5.8-.3 1.6-.9 2.3-1.5 1.4-1.4 2-3 2-4.9 0-2-.7-3.6-2-5-1.5-1.3-3.2-2-5-2zm18.7 10.6v-5.9h19v5.9h-19z"/><path class="kst1" d="M501.1 351.2v24.4h-5.9v-12.2c0-2-.7-3.6-2-5-1.4-1.4-3-2-5-2-.9 0-1.8.2-2.7.5-.9.4-1.6.9-2.3 1.5-1.4 1.4-2 3-2 5 0 1.9.7 3.6 2 4.9.7.7 1.4 1.2 2.3 1.5.9.3 1.8.5 2.7.5 1 0 1.9-.2 2.6-.5l2.1 5.2c-1.5.7-3.2 1.1-5.2 1.1-1.8 0-3.4-.3-5-1s-2.8-1.6-3.9-2.8c-1.1-1.2-2-2.5-2.6-4.1-.6-1.6-.9-3.2-.9-5 0-1.8.3-3.5.9-5 .6-1.6 1.5-2.9 2.6-4.1 1.1-1.2 2.4-2.1 3.9-2.8 1.5-.7 3.2-1 5-1 1.6 0 3 .2 4.2.7 1.2.5 2.3 1.1 3.3 1.9v-2h5.9z"/><path class="kst0" d="M355 369.8h-3.9c-.6 0-1.1-.2-1.5-.6-.4-.4-.6-.9-.6-1.6V360h4.9l-1.5-5.9H349v-9.3l-5.9 1.5v7.9h-2.2v5.9h2.2v7.5c0 1.1.2 2.1.6 3.1.4 1 1 1.8 1.7 2.6.7.7 1.6 1.3 2.5 1.7 1 .4 2 .6 3.1.6h5.4l-1.4-5.8zm115.4 0h-3.9c-.6 0-1.1-.2-1.5-.6-.4-.4-.6-.9-.6-1.6V360h4.9l-1.5-5.9h-3.4v-9.3l-5.9 1.5v7.9h-2.2v5.9h2.2v7.5c0 1.1.2 2.1.6 3.1.4 1 1 1.8 1.7 2.6.7.7 1.6 1.3 2.5 1.7 1 .4 2 .6 3.1.6h5.4l-1.4-5.8z"/></symbol><symbol id="logo_m" viewBox="0 0 841.9 595.3" xmlns="http://www.w3.org/2000/svg"><style>.lst0{fill:#c9474d}.lst1{fill:#222124}</style><path class="lst0" d="M599.9 287.8v35.6h-8.5v-17.8c0-2.8-1-5.3-3-7.3s-4.4-3-7.3-3c-1.4 0-2.7.3-3.9.8-1.3.5-2.4 1.3-3.3 2.2-2 2-3 4.4-3 7.3 0 2.8 1 5.2 3 7.2.9 1 2.1 1.7 3.3 2.2 1.3.5 2.6.7 3.9.7 1.4 0 2.7-.2 3.8-.7l3.1 7.6c-2.2 1.1-4.7 1.6-7.6 1.6-2.6 0-5-.5-7.2-1.5s-4.1-2.3-5.7-4c-1.6-1.7-2.9-3.7-3.8-6-.9-2.3-1.4-4.7-1.4-7.3 0-2.6.5-5.1 1.4-7.3.9-2.3 2.2-4.3 3.8-6 1.6-1.7 3.5-3 5.7-4s4.6-1.5 7.2-1.5c2.3 0 4.4.4 6.2 1.1 1.8.7 3.4 1.6 4.8 2.7v-2.8h8.5z"/><path class="lst1" d="M449.2 287.9l-12 35.6h-9l-7.5-22.9-7.5 22.9h-9l-12-35.6h9l7.5 23 7.5-23h9l7.5 23 7.5-23h9zm22.9-1c2.6 0 5.1.5 7.3 1.5 2.3 1 4.3 2.3 6 4 1.7 1.7 3 3.7 4 6s1.5 4.7 1.5 7.3c0 2.6-.5 5-1.5 7.3s-2.3 4.3-4 6c-1.7 1.7-3.7 3-6 4s-4.7 1.5-7.3 1.5c-2.6 0-5.1-.5-7.3-1.5-2.3-1-4.3-2.3-6-4-1.7-1.7-3-3.7-4-6s-1.5-4.7-1.5-7.3c0-2.6.5-5.1 1.5-7.3 1-2.3 2.3-4.3 4-6 1.7-1.7 3.7-3 6-4s4.7-1.5 7.3-1.5zm0 8.5c-2.8 0-5.3 1-7.3 3s-3 4.4-3 7.3c0 2.8 1 5.2 3 7.2.9 1 2.1 1.7 3.3 2.2 1.3.5 2.6.7 3.9.7 1.4 0 2.7-.2 3.9-.7 1.2-.5 2.3-1.2 3.3-2.2 2-2 3-4.4 3-7.2s-1-5.3-3-7.3c-1.9-2-4.3-3-7.1-3zm27.4 15.5v-8.5h27.7v8.5h-27.7zm-112.7 4h-5.7c-.9 0-1.6-.3-2.2-.9-.6-.6-.9-1.4-.9-2.3v-11h7.1l-2.1-8.5h-5v-13.6l-8.5 2.1v11.5h-3.3v8.6h3.3v11c0 1.6.3 3.1.9 4.6.6 1.4 1.4 2.7 2.5 3.7 1 1.1 2.3 1.9 3.7 2.5 1.4.6 2.9.9 4.6.9h7.8l-2.2-8.6zm168.4 0h-5.7c-.9 0-1.6-.3-2.2-.9-.6-.6-.9-1.4-.9-2.3v-11h7.1l-2.1-8.5h-5v-13.6l-8.5 2.1v11.5h-3.3v8.6h3.3v11c0 1.6.3 3.1.9 4.6.6 1.4 1.4 2.7 2.5 3.7 1 1.1 2.3 1.9 3.7 2.5 1.4.6 2.9.9 4.6.9h7.8l-2.2-8.6z"/></symbol><symbol id="material" viewBox="0 0 36 36" xmlns="http://www.w3.org/2000/svg"><style>.mst0{fill:#212125}</style><path class="mst0" d="M32.4 11.9l-1.9-5.5c-.2-.4-.6-.7-1-.7h-1.4c-2.3 0-4.6-1.1-6-3-.2-.3-.5-.4-.9-.4h-6c-.3 0-.7.2-.9.4-1.4 1.9-3.6 3-6 3H7.1c-.5 0-.9.3-1.1.7l-1.9 5.5c-.2.5 0 1.1.5 1.3l2.1 1.2c1.3.6 2 1.9 2 3.2 0 1.1-.5 2.1-1.2 2.8l-2.4 2.1c-.4.3-.5.8-.3 1.3l2.4 5.6c.2.4.6.7 1 .7 3.5 0 6.7 1.3 9.1 3.8l.1.1c.1.1.2.1.3.2v.2h.6l.5-.1v-.1c.1-.1.2-.1.3-.2l.1-.1c2.4-2.4 5.7-3.8 9.1-3.8.4 0 .8-.3 1-.7l2.4-5.6c.2-.4.1-.9-.3-1.3L29 20.4c-.8-.7-1.2-1.7-1.2-2.8 0-1.3.7-2.6 1.9-3.2l2.1-1.2c.6-.3.8-.8.6-1.3zm-1 .4l-2.1 1.2c-1.5.8-2.4 2.4-2.4 4.1 0 1.3.6 2.6 1.6 3.5l2.4 2.1v.1L28.5 29l-.1.1c-3.7 0-7.2 1.4-9.8 4.1l-.2.2h-.2l-.2-.3c-2.6-2.6-6.1-4.1-9.8-4.1 0 0-.1 0-.1-.1l-2.4-5.6v-.1l2.4-2.1c1-.9 1.6-2.2 1.6-3.5 0-1.7-.9-3.3-2.4-4.1l-2.1-1.2s-.1-.1 0-.1L7 6.7l.1-.1h1.4c2.6 0 5.2-1.3 6.8-3.4h6.1c1.6 2.1 4.1 3.4 6.8 3.4h1.4s.1 0 .1.1l1.9 5.5c-.1 0-.1.1-.2.1z"/></symbol><symbol viewBox="0 0 16 16" id="search" xmlns="http://www.w3.org/2000/svg"><path d="M13.9 13.7l-3.4-3.4c.8-.9 1.3-2.2 1.3-3.5 0-3-2.4-5.5-5.5-5.5-3 0-5.5 2.4-5.5 5.5 0 3 2.4 5.5 5.5 5.5 1.3 0 2.5-.5 3.5-1.3l3.4 3.4.7-.7zm-7.6-2.4c-2.5 0-4.5-2-4.5-4.5s2-4.5 4.5-4.5 4.5 2 4.5 4.5c-.1 2.5-2.1 4.5-4.5 4.5z"/></symbol><symbol viewBox="0 0 36 36" id="service" xmlns="http://www.w3.org/2000/svg"><path d="M32 12.2V7.5c0-1.4-.7-1.7-1.3-1.7-4.8 0-8.5-1.4-11.6-4.4-.7-.6-1.7-.6-2.3 0-3.1 3-6.7 4.4-11.6 4.4-.5 0-1.2.3-1.2 1.7v3.7c-.2 8.1-.4 19.1 13.5 23.9.2.1.4.1.5.1s.4 0 .5-.1C32.4 30.3 32.2 20.3 32 12.2zm-13.8 22c-.1.1-.3 0-.4 0-13.2-4.6-13-14.8-12.8-23V7.5c0-.7.2-.7.3-.7 5.1 0 9-1.5 12.3-4.6.1-.1.2-.2.4-.2s.3.1.5.2c3.3 3.2 7.1 4.6 12.3 4.6.1 0 .3 0 .3.7v4.7c.1 8.2.3 17.4-12.9 22zm8.2-21.6l.7.8-10.6 9.3-5.5-5.5.7-.7 4.8 4.8 9.9-8.7z"/></symbol><symbol viewBox="0 0 512 512" id="twitter" xmlns="http://www.w3.org/2000/svg"><path d="M459.37 151.716c.325 4.548.325 9.097.325 13.645 0 138.72-105.583 298.558-298.558 298.558-59.452 0-114.68-17.219-161.137-47.106 8.447.974 16.568 1.299 25.34 1.299 49.055 0 94.213-16.568 130.274-44.832-46.132-.975-84.792-31.188-98.112-72.772 6.498.974 12.995 1.624 19.818 1.624 9.421 0 18.843-1.3 27.614-3.573-48.081-9.747-84.143-51.98-84.143-102.985v-1.299c13.969 7.797 30.214 12.67 47.431 13.319-28.264-18.843-46.781-51.005-46.781-87.391 0-19.492 5.197-37.36 14.294-52.954 51.655 63.675 129.3 105.258 216.365 109.807-1.624-7.797-2.599-15.918-2.599-24.04 0-57.828 46.782-104.934 104.934-104.934 30.213 0 57.502 12.67 76.67 33.137 23.715-4.548 46.456-13.32 66.599-25.34-7.798 24.366-24.366 44.833-46.132 57.827 21.117-2.273 41.584-8.122 60.426-16.243-14.292 20.791-32.161 39.308-52.628 54.253z"/></symbol><symbol viewBox="0 0 576 512" id="vk" xmlns="http://www.w3.org/2000/svg"><path d="M545 117.7c3.7-12.5 0-21.7-17.8-21.7h-58.9c-15 0-21.9 7.9-25.6 16.7 0 0-30 73.1-72.4 120.5-13.7 13.7-20 18.1-27.5 18.1-3.7 0-9.4-4.4-9.4-16.9V117.7c0-15-4.2-21.7-16.6-21.7h-92.6c-9.4 0-15 7-15 13.5 0 14.2 21.2 17.5 23.4 57.5v86.8c0 19-3.4 22.5-10.9 22.5-20 0-68.6-73.4-97.4-157.4-5.8-16.3-11.5-22.9-26.6-22.9H38.8c-16.8 0-20.2 7.9-20.2 16.7 0 15.6 20 93.1 93.1 195.5C160.4 378.1 229 416 291.4 416c37.5 0 42.1-8.4 42.1-22.9 0-66.8-3.4-73.1 15.4-73.1 8.7 0 23.7 4.4 58.7 38.1 40 40 46.6 57.9 69 57.9h58.9c16.8 0 25.3-8.4 20.4-25-11.2-34.9-86.9-106.7-90.3-111.5-8.7-11.2-6.2-16.2 0-26.2.1-.1 72-101.3 79.4-135.6z"/></symbol><symbol viewBox="0 0 36 36" id="weight" xmlns="http://www.w3.org/2000/svg"><path d="M27 7.3h-3c0-3.3-2.7-6-6-6s-6 2.7-6 6H9l-5 21h28l-5-21zm-9-5c2.8 0 5 2.2 5 5H13c0-2.8 2.2-5 5-5zm-8.2 6h16.4l4.5 19H5.3l4.5-19zm18.2 24H8v-1.5l-3.5 2L8 34.7v-1.4h20v1.4l3.5-1.9-3.5-2z"/><path d="M17.9 14.6h-1l-3.2 3.5v-3.5h-.8v7.2h.8v-3.7l3.3 3.7h1l-3.3-3.7zm1.4 7.2h.8v-6.4h3.1v-.8h-3.9z"/></symbol></svg>