<svg width="241" height="52" xmlns="http://www.w3.org/2000/svg">
 <style type="text/css">.st0{fill:#C9474D;}
	.st1{fill:#222124;}</style>

 <g>
  <title>background</title>
  <rect fill="none" id="canvas_background" height="54" width="243" y="-1" x="-1"/>
 </g>
 <g>
  <title>Layer 1</title>
  <g id="svg_1">
   <path id="svg_2" d="m237.9,10.8l0,35.6l-8.5,0l0,-17.8c0,-2.8 -1,-5.3 -3,-7.3c-2,-2 -4.4,-3 -7.3,-3c-1.4,0 -2.7,0.3 -3.9,0.8c-1.3,0.5 -2.4,1.3 -3.3,2.2c-2,2 -3,4.4 -3,7.3c0,2.8 1,5.2 3,7.2c0.9,1 2.1,1.7 3.3,2.2c1.3,0.5 2.6,0.7 3.9,0.7c1.4,0 2.7,-0.2 3.8,-0.7l3.1,7.6c-2.2,1.1 -4.7,1.6 -7.6,1.6c-2.6,0 -5,-0.5 -7.2,-1.5c-2.2,-1 -4.1,-2.3 -5.7,-4c-1.6,-1.7 -2.9,-3.7 -3.8,-6c-0.9,-2.3 -1.4,-4.7 -1.4,-7.3c0,-2.6 0.5,-5.1 1.4,-7.3c0.9,-2.3 2.2,-4.3 3.8,-6c1.6,-1.7 3.5,-3 5.7,-4c2.2,-1 4.6,-1.5 7.2,-1.5c2.3,0 4.4,0.4 6.2,1.1c1.8,0.7 3.4,1.6 4.8,2.7l0,-2.8l8.5,0l0,0.2z" class="st0"/>
   <path id="svg_3" d="m87.2,10.9l-12,35.6l-9,0l-7.5,-22.9l-7.5,22.9l-9,0l-12,-35.6l9,0l7.5,23l7.5,-23l9,0l7.5,23l7.5,-23l9,0z" class="st1"/>
   <path id="svg_4" d="m110.1,9.9c2.6,0 5.1,0.5 7.3,1.5c2.3,1 4.3,2.3 6,4c1.7,1.7 3,3.7 4,6c1,2.3 1.5,4.7 1.5,7.3c0,2.6 -0.5,5 -1.5,7.3c-1,2.3 -2.3,4.3 -4,6c-1.7,1.7 -3.7,3 -6,4c-2.3,1 -4.7,1.5 -7.3,1.5c-2.6,0 -5.1,-0.5 -7.3,-1.5c-2.3,-1 -4.3,-2.3 -6,-4c-1.7,-1.7 -3,-3.7 -4,-6c-1,-2.3 -1.5,-4.7 -1.5,-7.3c0,-2.6 0.5,-5.1 1.5,-7.3c1,-2.3 2.3,-4.3 4,-6c1.7,-1.7 3.7,-3 6,-4c2.3,-1 4.7,-1.5 7.3,-1.5zm0,8.5c-2.8,0 -5.3,1 -7.3,3c-2,2 -3,4.4 -3,7.3c0,2.8 1,5.2 3,7.2c0.9,1 2.1,1.7 3.3,2.2c1.3,0.5 2.6,0.7 3.9,0.7c1.4,0 2.7,-0.2 3.9,-0.7c1.2,-0.5 2.3,-1.2 3.3,-2.2c2,-2 3,-4.4 3,-7.2c0,-2.8 -1,-5.3 -3,-7.3c-1.9,-2 -4.3,-3 -7.1,-3z" class="st1"/>
   <path id="svg_5" d="m137.5,33.9l0,-8.5l27.7,0l0,8.5l-27.7,0z" class="st1"/>
   <path id="svg_6" d="m24.8,37.9l-5.7,0c-0.9,0 -1.6,-0.3 -2.2,-0.9c-0.6,-0.6 -0.9,-1.4 -0.9,-2.3l0,-11l7.1,0l-2.1,-8.5l-5,0l0,-13.6l-8.5,2.1l0,11.5l-3.3,0l0,8.6l3.3,0l0,11c0,1.6 0.3,3.1 0.9,4.6c0.6,1.4 1.4,2.7 2.5,3.7c1,1.1 2.3,1.9 3.7,2.5c1.4,0.6 2.9,0.9 4.6,0.9l7.8,0l-2.2,-8.6z" class="st1"/>
   <path id="svg_7" d="m193.2,37.9l-5.7,0c-0.9,0 -1.6,-0.3 -2.2,-0.9c-0.6,-0.6 -0.9,-1.4 -0.9,-2.3l0,-11l7.1,0l-2.1,-8.5l-5,0l0,-13.6l-8.5,2.1l0,11.5l-3.3,0l0,8.6l3.3,0l0,11c0,1.6 0.3,3.1 0.9,4.6c0.6,1.4 1.4,2.7 2.5,3.7c1,1.1 2.3,1.9 3.7,2.5c1.4,0.6 2.9,0.9 4.6,0.9l7.8,0l-2.2,-8.6z" class="st1"/>
  </g>
 </g>
</svg>