<svg xmlns="http://www.w3.org/2000/svg" xmlns:xlink="http://www.w3.org/1999/xlink" width="98" height="30" viewBox="0 0 98 30"><defs><path id="lwtea" d="M1172 304v-13h13v13z"/><path id="lwteb" d="M1172 321v-13h13v13z"/><path id="lwtec" d="M1189 304v-13h13v13z"/><path id="lwted" d="M1189 321v-13h13v13z"/><path id="lwtee" d="M1206 304v-13h13v13z"/><path id="lwtef" d="M1206 321v-13h13v13z"/><path id="lwteg" d="M1223 304v-13h13v13z"/><path id="lwteh" d="M1223 321v-13h13v13z"/><path id="lwtei" d="M1240 304v-13h13v13z"/><path id="lwtej" d="M1240 321v-13h13v13z"/><path id="lwtek" d="M1257 304v-13h13v13z"/><path id="lwtel" d="M1257 321v-13h13v13z"/></defs><g><g transform="translate(-1172 -291)"><use fill="#b3b3b3" xlink:href="#lwtea"/></g><g transform="translate(-1172 -291)"><use fill="#b3b3b3" xlink:href="#lwteb"/></g><g transform="translate(-1172 -291)"><use fill="#b3b3b3" xlink:href="#lwtec"/></g><g transform="translate(-1172 -291)"><use fill="#b3b3b3" xlink:href="#lwted"/></g><g transform="translate(-1172 -291)"><use fill="#b3b3b3" xlink:href="#lwtee"/></g><g transform="translate(-1172 -291)"><use fill="#b3b3b3" xlink:href="#lwtef"/></g><g transform="translate(-1172 -291)"><use fill="#b3b3b3" xlink:href="#lwteg"/></g><g transform="translate(-1172 -291)"><use fill="#b3b3b3" xlink:href="#lwteh"/></g><g transform="translate(-1172 -291)"><use fill="#b3b3b3" xlink:href="#lwtei"/></g><g transform="translate(-1172 -291)"><use fill="#b3b3b3" xlink:href="#lwtej"/></g><g transform="translate(-1172 -291)"><use fill="#b3b3b3" xlink:href="#lwtek"/></g><g transform="translate(-1172 -291)"><use fill="#b3b3b3" xlink:href="#lwtel"/></g></g></svg>