<?xml version="1.0" encoding="utf-8"?>
<!-- Generator: Adobe Illustrator 22.1.0, SVG Export Plug-In . SVG Version: 6.00 Build 0)  -->
<svg version="1.1" id="Layer_1" xmlns="http://www.w3.org/2000/svg" xmlns:xlink="http://www.w3.org/1999/xlink" x="0px" y="0px"
	 viewBox="0 0 16 16" style="enable-background:new 0 0 16 16;" xml:space="preserve">
<style type="text/css">
	.st0{fill:#212125;}
</style>
<path class="st0" d="M11,4.6v-1c0-1-0.5-1.9-1.3-2.5C8.8,0.6,7.8,0.5,6.8,0.9C5.7,1.3,5,2.5,5,3.7v0.9H2v8.1c0,1.4,1.2,2.6,2.6,2.6
	h6.8c1.4,0,2.6-1.2,2.6-2.6V4.6H11z M6,3.7c0-0.8,0.5-1.6,1.2-1.9C7.9,1.6,8.6,1.6,9.1,2C9.7,2.4,10,3,10,3.7v1H6V3.7z M13,12.8
	c0,0.9-0.7,1.6-1.6,1.6H4.6c-0.9,0-1.6-0.7-1.6-1.6V5.6h10V12.8z"/>
</svg>
