<?xml version="1.0" encoding="utf-8"?>
<!-- Generator: Adobe Illustrator 22.1.0, SVG Export Plug-In . SVG Version: 6.00 Build 0)  -->
<svg version="1.1" id="Layer_1" xmlns="http://www.w3.org/2000/svg" xmlns:xlink="http://www.w3.org/1999/xlink" x="0px" y="0px"
	 viewBox="0 0 36 36" style="enable-background:new 0 0 36 36;" xml:space="preserve">
<style type="text/css">
	.st0{fill:#212125;}
</style>
<path class="st0" d="M32.4,11.9l-1.9-5.5c-0.2-0.4-0.6-0.7-1-0.7h-1.4c-2.3,0-4.6-1.1-6-3c-0.2-0.3-0.5-0.4-0.9-0.4h-6
	c-0.3,0-0.7,0.2-0.9,0.4c-1.4,1.9-3.6,3-6,3H7.1C6.6,5.7,6.2,6,6,6.4l-1.9,5.5c-0.2,0.5,0,1.1,0.5,1.3l2.1,1.2
	C8,15,8.7,16.3,8.7,17.6c0,1.1-0.5,2.1-1.2,2.8l-2.4,2.1c-0.4,0.3-0.5,0.8-0.3,1.3l2.4,5.6c0.2,0.4,0.6,0.7,1,0.7
	c3.5,0,6.7,1.3,9.1,3.8l0.1,0.1c0.1,0.1,0.2,0.1,0.3,0.2v0.2h0.6l0.5-0.1v-0.1c0.1-0.1,0.2-0.1,0.3-0.2l0.1-0.1
	c2.4-2.4,5.7-3.8,9.1-3.8c0.4,0,0.8-0.3,1-0.7l2.4-5.6c0.2-0.4,0.1-0.9-0.3-1.3l-2.4-2.1c-0.8-0.7-1.2-1.7-1.2-2.8
	c0-1.3,0.7-2.6,1.9-3.2l2.1-1.2C32.4,12.9,32.6,12.4,32.4,11.9z M31.4,12.3l-2.1,1.2c-1.5,0.8-2.4,2.4-2.4,4.1
	c0,1.3,0.6,2.6,1.6,3.5l2.4,2.1c0,0,0,0.1,0,0.1L28.5,29c0,0-0.1,0.1-0.1,0.1c-3.7,0-7.2,1.4-9.8,4.1l-0.2,0.2l-0.2,0L18,33.1
	c-2.6-2.6-6.1-4.1-9.8-4.1c0,0-0.1,0-0.1-0.1l-2.4-5.6c0,0,0-0.1,0-0.1l2.4-2.1c1-0.9,1.6-2.2,1.6-3.5c0-1.7-0.9-3.3-2.4-4.1
	l-2.1-1.2c0,0-0.1-0.1,0-0.1L7,6.7c0,0,0.1-0.1,0.1-0.1h1.4c2.6,0,5.2-1.3,6.8-3.4l6.1,0c1.6,2.1,4.1,3.4,6.8,3.4h1.4
	c0,0,0.1,0,0.1,0.1l1.9,5.5C31.5,12.2,31.5,12.3,31.4,12.3z"/>
</svg>
