<?xml version="1.0" encoding="utf-8"?>
<!-- Generator: Adobe Illustrator 22.1.0, SVG Export Plug-In . SVG Version: 6.00 Build 0)  -->
<svg version="1.1" id="Layer_1" xmlns="http://www.w3.org/2000/svg" xmlns:xlink="http://www.w3.org/1999/xlink" x="0px" y="0px"
	 viewBox="0 0 16 16" style="enable-background:new 0 0 16 16;" xml:space="preserve">
<path d="M13.9,13.7l-3.4-3.4c0.8-0.9,1.3-2.2,1.3-3.5c0-3-2.4-5.5-5.5-5.5c-3,0-5.5,2.4-5.5,5.5c0,3,2.4,5.5,5.5,5.5
	c1.3,0,2.5-0.5,3.5-1.3l3.4,3.4L13.9,13.7z M6.3,11.3c-2.5,0-4.5-2-4.5-4.5c0-2.5,2-4.5,4.5-4.5c2.5,0,4.5,2,4.5,4.5
	C10.7,9.3,8.7,11.3,6.3,11.3z"/>
</svg>
