<?xml version="1.0" encoding="utf-8"?>
<!-- Generator: Adobe Illustrator 22.1.0, SVG Export Plug-In . SVG Version: 6.00 Build 0)  -->
<svg version="1.1" id="Layer_1" xmlns="http://www.w3.org/2000/svg" xmlns:xlink="http://www.w3.org/1999/xlink" x="0px" y="0px"
	 viewBox="0 0 36 36" style="enable-background:new 0 0 36 36;" xml:space="preserve">
<g>
	<path d="M27,7.3h-3c0-3.3-2.7-6-6-6s-6,2.7-6,6H9l-5,21h28L27,7.3z M18,2.3c2.8,0,5,2.2,5,5H13C13,4.5,15.2,2.3,18,2.3z M9.8,8.3
		h16.4l4.5,19H5.3L9.8,8.3z"/>
	<polygon points="28,32.3 8,32.3 8,30.8 4.5,32.8 8,34.7 8,33.3 28,33.3 28,34.7 31.5,32.8 28,30.8 	"/>
	<polygon points="17.9,14.6 16.9,14.6 13.7,18.1 13.7,14.6 12.9,14.6 12.9,21.8 13.7,21.8 13.7,18.1 17,21.8 18,21.8 14.7,18.1 	"/>
	<polygon points="19.3,21.8 20.1,21.8 20.1,15.4 23.2,15.4 23.2,14.6 19.3,14.6 	"/>
</g>
</svg>
